# xmcd CD database file
#
# Track frame offsets:
#	150
#	42474
#	90094
#	135109
#	188294
#	231536
#
# Disc length: 3956 seconds
#
# Revision: 0
# Processed by: cddbd v1.5.2PL0 Copyright (c) Steve Scherf et al.
# Submitted via: CDex 1.77
#
DISCID=3b0f7206
DTITLE=Kris Davis - Save Your Breath
DYEAR=2014
DGENRE=Jazz
TTITLE0=Union Forever
TTITLE1=Jumping over your Shadow
TTITLE2=Always Leave Them (Wanting More)
TTITLE3=Whirly Swirly
TTITLE4=The Ghost of Your Previous Fuckup
TTITLE5=Save Your Breath
EXTD=YEAR: 2014
EXTT0=
EXTT1=
EXTT2=
EXTT3=
EXTT4=
EXTT5=
PLAYORDER=
